<svg width="152" height="30" viewBox="0 0 152 30" fill="none" xmlns="http://www.w3.org/2000/svg">
<path fill-rule="evenodd" clip-rule="evenodd" d="M12.1606 4.1867L18.4705 0L27.7917 6.87854V20.1834H24.1439V8.72004L18.3594 4.45209L12.1715 8.55755V20.1103H8.52367L8.51283 2.68642H12.1606V4.1867ZM113.452 15.4954V15.4304C113.452 9.74067 117.322 6.52075 121.419 6.52075C124.249 6.52075 126.036 7.95062 127.271 9.54568V0.31111H131.206V24.0475H127.271V21.185C126.004 22.9724 124.214 24.405 121.419 24.405C117.387 24.405 113.452 21.185 113.452 15.4954ZM127.336 15.4954V15.4304C127.336 12.113 124.996 9.93565 122.361 9.93565C119.726 9.93565 117.419 12.0155 117.419 15.4304V15.4954C117.419 18.8128 119.694 20.9901 122.361 20.9901C125.029 20.9901 127.336 18.7776 127.336 15.4954ZM110.881 0.506138H106.654V4.24601H110.881V0.506138ZM110.751 6.87826H106.817V24.0448H110.751V6.87826ZM95.554 19.3004V10.2608H93.3767V6.87843H95.554V2.16365H99.4889V6.87843H104.106V10.2608H99.4889V18.683C99.4889 20.2103 100.269 20.8278 101.601 20.8278C102.479 20.8278 103.259 20.6328 104.041 20.2428V23.4628C103.066 24.0152 101.961 24.3402 100.496 24.3402C97.6013 24.3402 95.554 23.0728 95.554 19.3004ZM42.5431 6.87893H46.4779V9.5464C47.5828 7.92155 49.1779 6.52147 51.8427 6.52147C55.7125 6.52147 57.9548 9.12123 57.9548 13.1211V24.0455H54.02V14.2937C54.02 11.6262 52.6876 10.0988 50.3451 10.0988C48.0026 10.0988 46.4752 11.6912 46.4752 14.3587V24.0482H42.5404V6.87893H42.5431ZM60.4242 15.5286V15.4636C60.4242 10.5538 63.9041 6.52147 68.8138 6.52147C74.276 6.52147 77.041 10.8138 77.041 15.756C77.041 16.0857 77.0133 16.4154 76.9835 16.7705V16.7706V16.7707V16.7707V16.7709V16.771L76.976 16.8609H64.3617C64.7842 19.6584 66.7665 21.2183 69.304 21.2183C71.2213 21.2183 72.5889 20.5033 73.9538 19.1709L76.2611 21.2183C74.6362 23.1681 72.3912 24.4382 69.239 24.4382C64.2642 24.4382 60.4269 20.8283 60.4269 15.5286H60.4242ZM73.1386 14.2612C72.8787 11.7237 71.3838 9.74138 68.7813 9.74138C66.3765 9.74138 64.684 11.5937 64.3265 14.2612H73.1386ZM80.0851 19.1355L78.3302 21.803L78.3329 21.8057C80.4777 23.4955 83.175 24.3729 85.615 24.3729C89.1896 24.3729 91.9871 22.5856 91.9871 18.9757V18.9107C91.9871 15.8208 89.1599 14.6834 86.6549 13.9035C86.5393 13.8661 86.4242 13.8291 86.31 13.7924C84.4311 13.1889 82.785 12.6601 82.785 11.496V11.431C82.785 10.4236 83.6624 9.70865 85.1898 9.70865C86.6197 9.70865 88.3772 10.3261 90.0346 11.3335L91.5944 8.53605C89.7746 7.33366 87.4321 6.58623 85.2873 6.58623C81.8751 6.58623 79.1751 8.56855 79.1751 11.821V11.886C79.1751 15.1709 82.0024 16.2108 84.5399 16.9257C84.6752 16.9671 84.8096 17.0078 84.9426 17.048C86.7933 17.6081 88.3772 18.0875 88.3772 19.3305V19.3955C88.3772 20.5329 87.4646 21.2478 85.7098 21.2478C83.9549 21.2478 81.9374 20.5329 80.0851 19.1355ZM133.903 15.4304V15.4954C133.903 21.185 137.837 24.405 141.87 24.405C144.665 24.405 146.455 22.9724 147.722 21.185V24.0475H151.657V0.31111H147.722V9.54568C146.487 7.95062 144.7 6.52075 141.87 6.52075C137.772 6.52075 133.903 9.74067 133.903 15.4304ZM147.787 15.4304V15.4954C147.787 18.7776 145.48 20.9901 142.812 20.9901C140.145 20.9901 137.87 18.8128 137.87 15.4954V15.4304C137.87 12.0155 140.18 9.93565 142.812 9.93565C145.444 9.93565 147.787 12.113 147.787 15.4304ZM32.095 16.1019C30.1072 21.8972 24.6098 26.0731 18.151 26.0731C11.6922 26.0731 6.19483 21.8972 4.20709 16.1019H0.394104C2.501 23.9364 9.66118 29.7236 18.151 29.7236C26.6409 29.7236 33.8038 23.9391 35.908 16.1019H32.095Z" fill="#003155"/>
</svg>
