<svg xmlns="http://www.w3.org/2000/svg" viewBox="0 0 32 32">
  <!-- Teal triangle center -->
  <path d="M16 2L25 30H7Z" fill="#6EC6B8"/>
  <!-- Left figure (navy) -->
  <circle cx="13" cy="5.5" r="3" fill="#1A4D6E"/>
  <path d="M13 8C6 10 4 18 8 30H16C14.5 21 15 16 16 11.5C14 9 13 8 13 8Z" fill="#1A4D6E"/>
  <!-- Right figure (gold) -->
  <circle cx="20" cy="6.5" r="2.5" fill="#D4A34B"/>
  <path d="M19 9C25 11 27 19 24 30H16C17.5 21 17 17 16 12.5C18 10 19 9 19 9Z" fill="#D4A34B"/>
  <!-- Overlap blend -->
  <path d="M16 11.5C15 16 14.5 21 16 30C17.5 21 17 17 16 12.5Z" fill="#7A8E3E" opacity="0.55"/>
</svg>
